<svg width="146" height="60" viewBox="0 0 146 60" fill="none" xmlns="http://www.w3.org/2000/svg">
<rect x="1" y="1" width="143.398" height="58" fill="white" stroke="#DA9255" stroke-width="2"/>
<path d="M79.2004 27.3299H82.6885C85.8819 27.3299 88.2524 27.9519 89.8 29.1958C91.3475 30.4398 92.1213 32.3733 92.1213 34.9829C92.1213 37.1327 91.4089 38.7688 89.9965 39.9046C88.584 41.0403 86.5452 41.6082 83.9045 41.6082H72.7031V18.3789H90.4632V23.0843H79.2127V27.3299H79.2004ZM79.2004 36.6189H82.5412C84.58 36.6189 85.6117 35.8076 85.6117 34.1851C85.6117 32.7654 84.5923 32.0488 82.5412 32.0488H79.2004V36.6189Z" fill="#DA9255"/>
<path d="M114.782 41.6075H107.438L104.895 35.6041C104.293 34.1844 103.827 33.3055 103.495 32.9405C103.163 32.5889 102.697 32.4131 102.107 32.4131V41.6075H95.5977V18.3782H102.107V27.3022C102.672 27.2751 103.114 27.0452 103.434 26.6396C103.753 26.234 104.244 25.0441 104.92 23.0971C105.411 21.6503 105.902 20.6092 106.406 19.9872C106.91 19.3653 107.72 18.9055 108.838 18.6351C109.956 18.3647 111.724 18.2295 114.119 18.2295V23.1376H113.788C112.67 23.1376 111.847 23.3675 111.307 23.8408C110.766 24.314 110.324 25.0576 109.98 26.0988C109.636 27.1399 109.268 27.9106 108.862 28.4244C108.457 28.9382 107.917 29.3439 107.229 29.6548C108.175 29.9929 108.985 30.5743 109.685 31.3991C110.385 32.2238 111.135 33.5219 111.921 35.2796L114.782 41.6075Z" fill="#DA9255"/>
<path d="M130.343 28.9792C132.873 29.7228 134.138 31.4806 134.138 34.2389C134.138 36.5104 133.34 38.3763 131.755 39.8231C130.171 41.2699 127.923 42 125.025 42C120.075 42 116.992 39.7149 115.801 35.1448L121.966 34.631C122.31 36.2535 123.293 37.0513 124.914 37.0513C125.811 37.0513 126.499 36.8079 126.965 36.3076C127.432 35.8073 127.665 35.1177 127.665 34.2254C127.665 33.3735 127.371 32.6704 126.793 32.1431C126.216 31.6158 125.405 31.3454 124.386 31.3454H122.617V27.1944H124.018C124.853 27.1944 125.504 26.951 125.983 26.4778C126.462 26.0045 126.695 25.3285 126.695 24.4766C126.695 23.2192 125.983 22.5972 124.546 22.5972C123.072 22.5972 122.212 23.3273 121.966 24.7741L116.132 24.0304C117.078 20.0011 119.928 18 124.656 18C127.272 18 129.323 18.5544 130.822 19.6766C132.32 20.7989 133.057 22.2997 133.057 24.1927C133.045 26.4642 132.148 28.0597 130.343 28.9792Z" fill="#DA9255"/>
<rect x="1" y="1" width="59.4356" height="58" fill="white" stroke="#DA9255" stroke-width="2"/>
<rect x="2.54688" y="2.5" width="27.67" height="11" rx="1.5" fill="#DA9255" stroke="white"/>
<rect x="2.54688" y="13.5" width="27.67" height="11" rx="1.5" fill="#DA9255" stroke="white"/>
<rect x="31.2148" y="13.5" width="27.67" height="11" rx="1.5" fill="#DA9255" stroke="white"/>
<rect x="2.54688" y="24.5" width="27.67" height="11" rx="1.5" fill="#DA9255" stroke="white"/>
<rect x="31.2148" y="24.5" width="27.67" height="11" rx="1.5" fill="#DA9255" stroke="white"/>
<rect x="2.54688" y="35.5" width="27.67" height="11" rx="1.5" fill="#DA9255" stroke="white"/>
<rect x="31.2148" y="35.5" width="27.67" height="11" rx="1.5" fill="#DA9255" stroke="white"/>
<rect x="2.54688" y="46.5" width="27.67" height="11" rx="1.5" fill="#DA9255" stroke="white"/>
<rect x="31.2148" y="46.5" width="27.67" height="11" rx="1.5" fill="#DA9255" stroke="white"/>
<rect x="31.2148" y="2.5" width="27.67" height="11" rx="1.5" fill="#DA9255" stroke="white"/>
</svg>
