<svg width="146" height="60" viewBox="0 0 146 60" fill="none" xmlns="http://www.w3.org/2000/svg">
<rect x="1" y="1" width="144" height="58" fill="white" stroke="#DA9255" stroke-width="2"/>
<path d="M92.1887 41.3254H84.844L82.3015 35.3275C81.6997 33.9091 81.233 33.031 80.9014 32.6662C80.5697 32.315 80.103 32.1394 79.5135 32.1394V41.3254H73.0039V18.1173H79.5135V27.0331C80.0784 27.0061 80.5206 26.7764 80.8399 26.3712C81.1593 25.9659 81.6506 24.7771 82.3261 22.8319C82.8174 21.3864 83.3087 20.3463 83.8122 19.7249C84.3158 19.1035 85.1264 18.6442 86.2441 18.374C87.3618 18.1038 89.1304 17.9688 91.5255 17.9688V22.8724H91.1939C90.0762 22.8724 89.2533 23.1021 88.7128 23.5749C88.1724 24.0477 87.7303 24.7907 87.3864 25.8308C87.0425 26.871 86.674 27.641 86.2687 28.1543C85.8634 28.6677 85.323 29.0729 84.6352 29.3836C85.5809 29.7214 86.3915 30.3022 87.0916 31.1263C87.7917 31.9503 88.5409 33.2471 89.327 35.0033L92.1887 41.3254Z" fill="#DA9255"/>
<path d="M108.73 28.9379C111.26 29.6808 112.525 31.437 112.525 34.1928C112.525 36.4622 111.727 38.3264 110.142 39.7719C108.558 41.2173 106.31 41.9468 103.411 41.9468C98.4617 41.9468 95.3789 39.6638 94.1875 35.0978L100.353 34.5845C100.697 36.2056 101.68 37.0026 103.301 37.0026C104.197 37.0026 104.885 36.7594 105.352 36.2596C105.819 35.7598 106.052 35.0708 106.052 34.1792C106.052 33.3282 105.757 32.6257 105.18 32.0989C104.603 31.5721 103.792 31.3019 102.773 31.3019H101.004V27.1547H102.404C103.239 27.1547 103.89 26.9115 104.369 26.4387C104.848 25.9659 105.082 25.2905 105.082 24.4395C105.082 23.1831 104.369 22.5617 102.932 22.5617C101.459 22.5617 100.599 23.2912 100.353 24.7366L94.5191 23.9937C95.4649 19.9681 98.3143 17.9688 103.043 17.9688C105.659 17.9688 107.71 18.5226 109.209 19.6438C110.707 20.7651 111.444 22.2645 111.444 24.1558C111.432 26.4252 110.535 28.0193 108.73 28.9379Z" fill="#DA9255"/>
<path d="M121.025 26.9116H124.513C127.706 26.9116 130.077 27.5329 131.624 28.7757C133.172 30.0186 133.946 31.9503 133.946 34.5575C133.946 36.7054 133.233 38.34 131.821 39.4747C130.408 40.6094 128.369 41.1768 125.729 41.1768H114.527V17.9688H132.287V22.6698H121.037V26.9116H121.025ZM121.025 36.1921H124.365C126.404 36.1921 127.436 35.3815 127.436 33.7605C127.436 32.3421 126.417 31.6261 124.365 31.6261H121.025V36.1921Z" fill="#DA9255"/>
<rect x="1" y="1" width="60" height="58" fill="white" stroke="#DA9255" stroke-width="2"/>
<rect x="2.55469" y="2.5" width="27.7887" height="11" rx="1.5" fill="#DA9255" stroke="white"/>
<rect x="2.55469" y="13.5" width="27.7887" height="11" rx="1.5" fill="#DA9255" stroke="white"/>
<rect x="31.3477" y="13.5" width="27.7887" height="11" rx="1.5" fill="#DA9255" stroke="white"/>
<rect x="2.55469" y="24.5" width="27.7887" height="11" rx="1.5" fill="#DA9255" stroke="white"/>
<rect x="31.3477" y="24.5" width="27.7887" height="11" rx="1.5" fill="#DA9255" stroke="white"/>
<rect x="2.55469" y="35.5" width="27.7887" height="11" rx="1.5" fill="#DA9255" stroke="white"/>
<rect x="31.3477" y="35.5" width="27.7887" height="11" rx="1.5" fill="#DA9255" stroke="white"/>
<rect x="2.55469" y="46.5" width="27.7887" height="11" rx="1.5" fill="#DA9255" stroke="white"/>
<rect x="31.3477" y="46.5" width="27.7887" height="11" rx="1.5" fill="#DA9255" stroke="white"/>
<rect x="31.3477" y="2.5" width="27.7887" height="11" rx="1.5" fill="#DA9255" stroke="white"/>
</svg>
